<?xml version="1.0" encoding="iso-8859-1"?>
<!-- Generator: Adobe Illustrator 19.0.0, SVG Export Plug-In . SVG Version: 6.00 Build 0)  -->
<svg version="1.1" id="Capa_1" xmlns="http://www.w3.org/2000/svg" xmlns:xlink="http://www.w3.org/1999/xlink" x="0px" y="0px"
	 viewBox="0 0 512 512" style="enable-background:new 0 0 512 512;" xml:space="preserve">
<path style="fill:#57BF93;" d="M512,256c0,141.385-114.615,256-256,256S0,397.385,0,256S114.615,0,256,0S512,114.615,512,256z"/>
<path style="fill:#00915D;" d="M472.749,119.748L344.76,209.263c-3.243,2.269-7.197-1.686-4.929-4.929l93.196-133.252
	C448.168,85.581,461.522,101.926,472.749,119.748z"/>
<path style="fill:#E63950;" d="M468,300c0,59.48-20.289,114.218-54.318,157.682C370.218,491.711,315.48,512,256,512
	C114.615,512,0,397.385,0,256c0-59.48,20.289-114.218,54.318-157.682C97.782,64.289,152.52,44,212,44
	C353.385,44,468,158.615,468,300z"/>
<path style="fill:#AE2538;" d="M212,44c3.687,0,7.351,0.096,11,0.25C136.106,47.926,60.425,94.915,16.979,164.178
	c9.181-23.883,21.826-46.046,37.339-65.86C97.782,64.289,152.52,44,212,44z"/>
<path style="fill:#F9E8B2;" d="M388,300c0,97.202-78.798,176-176,176S36,397.202,36,300s78.798-176,176-176S388,202.798,388,300z"/>
<path style="fill:#F3CC50;" d="M345.746,414.414c-2.945,3.435-6.042,6.785-9.295,10.037c-68.732,68.732-180.169,68.732-248.901,0
	s-68.732-180.169,0-248.901c3.253-3.253,6.602-6.35,10.037-9.295c-59.282,69.148-56.184,173.385,9.295,238.865
	S276.598,473.695,345.746,414.414z M77,300c0,11.046,8.954,20,20,20s20-8.954,20-20s-8.954-20-20-20S77,288.954,77,300z M327,320
	c11.046,0,20-8.954,20-20s-8.954-20-20-20s-20,8.954-20,20S315.954,320,327,320z M212,435c11.046,0,20-8.954,20-20s-8.954-20-20-20
	s-20,8.954-20,20S200.954,435,212,435z M212,205c11.046,0,20-8.954,20-20s-8.954-20-20-20s-20,8.954-20,20S200.954,205,212,205z"/>
<path style="fill:#F7C22C;" d="M213.936,300l160.108,68.775c-8.578,20.229-21.101,39.184-37.593,55.676
	c-16.492,16.492-35.446,29.015-55.676,37.593L212,301.936l-68.775,160.108c-20.229-8.578-39.184-21.101-55.676-37.593
	c-16.492-16.492-29.015-35.446-37.593-55.676L210.064,300L49.956,231.225c8.578-20.229,21.101-39.184,37.593-55.676
	s35.446-29.015,55.676-37.593L212,298.064l68.775-160.108c20.229,8.578,39.184,21.101,55.676,37.593s29.015,35.446,37.593,55.676
	L213.936,300z"/>
<path style="fill:#CFA000;" d="M258,300c0,25.405-20.595,46-46,46s-46-20.595-46-46s20.595-46,46-46S258,274.595,258,300z
	 M116.541,204.541c-7.811,7.811-7.811,20.474,0,28.284s20.474,7.811,28.284,0c7.811-7.811,7.811-20.474,0-28.284
	C137.014,196.73,124.351,196.73,116.541,204.541z M307.459,367.175c-7.811-7.811-20.474-7.811-28.284,0
	c-7.811,7.81-7.811,20.474,0,28.284c7.81,7.811,20.474,7.811,28.284,0S315.27,374.985,307.459,367.175z M116.541,367.175
	c-7.811,7.81-7.811,20.474,0,28.284s20.474,7.811,28.284,0c7.811-7.811,7.811-20.474,0-28.284
	C137.014,359.365,124.351,359.365,116.541,367.175z"/>
<path style="fill:#F7C22C;" d="M228,300c0,8.837-7.163,16-16,16s-16-7.163-16-16s7.163-16,16-16S228,291.163,228,300z"/>
<path style="fill:#FFA799;" d="M237.862,75c0,14.283-11.579,25.862-25.862,25.862S186.138,89.283,186.138,75
	S197.717,49.138,212,49.138S237.862,60.717,237.862,75z M212,499.138c-6.141,0-11.779,2.145-16.215,5.721
	c12.334,2.974,25.015,5.054,37.973,6.169C229.156,503.878,221.134,499.138,212,499.138z M0.973,278.242
	c1.115,12.958,3.195,25.639,6.169,37.974c3.576-4.437,5.721-10.074,5.721-16.216C12.862,290.866,8.123,282.844,0.973,278.242z
	 M437,274.138c-14.283,0-25.862,11.579-25.862,25.862s11.579,25.862,25.862,25.862s25.862-11.579,25.862-25.862
	S451.283,274.138,437,274.138z M86.569,82.747c-12.37,7.142-16.608,22.958-9.466,35.328s22.959,16.608,35.328,9.466
	s16.608-22.958,9.466-35.328S98.939,75.605,86.569,82.747z M311.569,472.458c-12.37,7.142-16.608,22.958-9.466,35.328
	c0.011,0.02,0.024,0.038,0.035,0.058c16.692-3.039,32.82-7.692,48.214-13.798c-0.126-4.131-1.244-8.292-3.455-12.121
	C339.756,469.555,323.939,465.317,311.569,472.458z M419.787,209.897c12.37-7.142,16.608-22.959,9.466-35.329
	s-22.958-16.608-35.328-9.466s-16.608,22.959-9.466,35.329S407.417,217.039,419.787,209.897z M30.075,165.103
	c-3.83-2.211-7.99-3.329-12.121-3.454c-6.107,15.394-10.76,31.522-13.799,48.214c0.02,0.011,0.038,0.023,0.058,0.035
	c12.37,7.142,28.187,2.903,35.328-9.466S42.445,172.244,30.075,165.103z M419.787,390.103c-12.37-7.142-28.187-2.903-35.328,9.466
	s-2.903,28.187,9.466,35.329c12.37,7.142,28.187,2.903,35.328-9.466S432.156,397.244,419.787,390.103z M337.431,82.747
	c-12.37-7.142-28.187-2.903-35.328,9.466s-2.903,28.187,9.466,35.328s28.187,2.903,35.328-9.466S349.801,89.889,337.431,82.747z"/>
<path style="fill:#FFF9BF;" d="M237.862,75c0,10.604-6.385,19.712-15.517,23.704c-5.124-2.239-9.381-6.09-12.132-10.911
	c0.586,0.082,1.179,0.138,1.788,0.138c7.142,0,12.931-5.79,12.931-12.931S219.142,62.069,212,62.069
	c-0.608,0-1.202,0.057-1.788,0.138c2.752-4.821,7.009-8.672,12.132-10.911C231.478,55.288,237.862,64.396,237.862,75z
	 M222.345,501.296c-3.673,1.605-6.888,4.049-9.435,7.074c6.858,1.163,13.808,2.051,20.84,2.657
	C231.001,506.761,227.041,503.349,222.345,501.296z M0.973,278.25c0.606,7.032,1.494,13.982,2.657,20.84
	c3.025-2.547,5.469-5.763,7.074-9.436C8.651,284.959,5.24,280.999,0.973,278.25z M437,274.138c-10.604,0-19.712,6.385-23.704,15.518
	c2.239,5.124,6.09,9.381,10.911,12.132c-0.081-0.586-0.138-1.179-0.138-1.788c0-7.142,5.789-12.931,12.931-12.931
	s12.931,5.79,12.931,12.931c0,0.608-0.057,1.202-0.138,1.788c4.821-2.751,8.671-7.009,10.911-12.132
	C456.712,280.522,447.604,274.138,437,274.138z M96.607,79.443c-3.317,4.501-5.079,9.965-5.052,15.516
	c0.467-0.363,0.953-0.709,1.479-1.013c6.185-3.571,14.093-1.452,17.664,4.733s1.452,14.093-4.733,17.664
	c-0.527,0.304-1.069,0.552-1.617,0.774c4.793,2.799,10.406,4.005,15.962,3.383c5.913-8.023,6.888-19.104,1.586-28.287
	C116.595,83.03,106.512,78.334,96.607,79.443z M321.607,469.155c-3.317,4.501-5.079,9.964-5.052,15.515
	c0.467-0.363,0.953-0.709,1.479-1.013c6.185-3.571,14.093-1.452,17.664,4.733c1.935,3.351,2.187,7.205,1.039,10.604
	c4.592-1.525,9.129-3.168,13.601-4.942c-0.124-4.133-1.229-8.294-3.441-12.126C341.595,472.741,331.512,468.045,321.607,469.155z
	 M395.657,193.965c-3.571-6.185-1.452-14.093,4.733-17.664s14.093-1.452,17.664,4.733c0.304,0.526,0.552,1.069,0.774,1.617
	c2.799-4.793,4.005-10.405,3.383-15.962c-8.023-5.913-19.103-6.888-28.287-1.586s-13.879,15.386-12.77,25.291
	c4.501,3.317,9.965,5.079,15.515,5.052C396.307,194.978,395.961,194.492,395.657,193.965z M30.075,165.103
	c-3.832-2.212-7.994-3.317-12.127-3.44c-1.774,4.472-3.417,9.009-4.942,13.601c3.399-1.148,7.252-0.896,10.604,1.039
	c6.185,3.571,8.304,11.479,4.733,17.665c-0.304,0.526-0.65,1.012-1.013,1.479c5.551,0.027,11.014-1.734,15.515-5.052
	C43.955,180.488,39.259,170.405,30.075,165.103z M419.787,390.103c-9.184-5.302-20.264-4.327-28.287,1.586
	c-0.623,5.557,0.583,11.169,3.383,15.962c0.222-0.548,0.47-1.09,0.774-1.617c3.571-6.185,11.479-8.304,17.664-4.733
	s8.304,11.479,4.733,17.664c-0.304,0.527-0.65,1.013-1.013,1.479c5.551,0.027,11.014-1.734,15.515-5.052
	C433.666,405.488,428.97,395.405,419.787,390.103z M319.652,117.117c-0.548-0.223-1.09-0.47-1.617-0.774
	c-6.185-3.571-8.304-11.479-4.733-17.664c3.571-6.185,11.479-8.304,17.664-4.733c0.527,0.304,1.012,0.65,1.479,1.013
	c0.027-5.551-1.734-11.014-5.052-15.516c-9.905-1.109-19.988,3.586-25.29,12.77c-5.302,9.183-4.327,20.264,1.586,28.287
	C309.246,121.123,314.858,119.917,319.652,117.117z M324.191,254.817l-4.809-28.042c-0.11-0.642,0.103-1.296,0.569-1.751
	l20.374-19.859c1.175-1.145,0.526-3.139-1.097-3.375l-28.155-4.091c-0.645-0.094-1.202-0.499-1.49-1.083l-12.592-25.513
	c-0.726-1.471-2.823-1.471-3.549,0l-12.591,25.513c-0.288,0.584-0.845,0.989-1.49,1.083l-28.156,4.091
	c-1.623,0.236-2.271,2.23-1.097,3.375l20.374,19.859c0.466,0.455,0.679,1.109,0.569,1.751l-4.81,28.042
	c-0.277,1.616,1.419,2.849,2.871,2.086l25.183-13.239c0.576-0.303,1.265-0.303,1.842,0l25.183,13.239
	C322.772,257.667,324.469,256.434,324.191,254.817z"/>
<path style="fill:#495959;" d="M464.489,94.007l-138.276,96.709c-3.243,2.268-7.197-1.686-4.929-4.929l96.709-138.276
	c1.262-1.804,3.846-2.031,5.403-0.474l41.567,41.567C466.52,90.16,466.293,92.745,464.489,94.007z"/>
<g>
</g>
<g>
</g>
<g>
</g>
<g>
</g>
<g>
</g>
<g>
</g>
<g>
</g>
<g>
</g>
<g>
</g>
<g>
</g>
<g>
</g>
<g>
</g>
<g>
</g>
<g>
</g>
<g>
</g>
</svg>
