<?xml version="1.0" encoding="iso-8859-1"?>
<!-- Generator: Adobe Illustrator 19.0.0, SVG Export Plug-In . SVG Version: 6.00 Build 0)  -->
<svg version="1.1" id="Capa_1" xmlns="http://www.w3.org/2000/svg" xmlns:xlink="http://www.w3.org/1999/xlink" x="0px" y="0px"
	 viewBox="0 0 512 512" style="enable-background:new 0 0 512 512;" xml:space="preserve">
<path style="fill:#89C947;" d="M384.743,326.01V295.5c0-16.882-13.88-30.694-30.843-30.694H158.101
	c-16.965,0-30.843,13.813-30.843,30.694v30.51H384.743z"/>
<path style="fill:#60A041;" d="M257.985,299.817c-1.091,2.531-2.879,2.531-3.97,0l-5.533-12.825v36.513h15.034v-36.512
	L257.985,299.817z"/>
<path style="opacity:0.1;enable-background:new    ;" d="M147.831,326.01V295.5c0-16.882,13.879-30.694,30.844-30.694h-20.573
	c-16.965,0-30.843,13.813-30.843,30.694v30.51H147.831z"/>
<path style="fill:#4B7D32;" d="M263.725,243.972h-15.45c-15.427,0-29.823-4.367-42.032-11.91v38.995
	c0,2.756,1.612,6.588,3.582,8.516l18.459,18.059c1.971,1.928,5.195,1.928,7.164,0l16.968-16.601c1.971-1.927,5.195-1.927,7.164,0
	l16.969,16.601c1.971,1.928,5.195,1.928,7.164,0l18.46-18.059c1.971-1.927,3.582-5.759,3.582-8.516v-38.995
	C293.55,239.604,279.153,243.972,263.725,243.972z"/>
<path style="fill:#EBB272;" d="M263.725,243.972h-15.45c-6.368,0-12.553-0.764-18.49-2.166c-0.19,0.716-0.119,1.562,0.272,2.469
	l23.958,55.542c1.092,2.531,2.879,2.531,3.97,0l23.959-55.542c0.392-0.907,0.463-1.753,0.272-2.469
	C276.279,243.209,270.094,243.972,263.725,243.972z"/>
<path style="fill:#FECF05;" d="M490.213,499.921c0,2.832-2.318,5.151-5.151,5.151H26.938c-2.834,0-5.151-2.318-5.151-5.151V328.656
	c0-2.832,2.318-5.152,5.151-5.152h458.123c2.833,0,5.151,2.318,5.151,5.152v171.265H490.213z"/>
<path style="fill:#B52D5A;" d="M451.638,491.985h-2.989c-4.152,0-7.517-3.365-7.517-7.517s3.366-7.517,7.517-7.517h2.989
	c4.152,0,7.517,3.365,7.517,7.517S455.79,491.985,451.638,491.985z M426.734,491.985h-2.989c-4.152,0-7.517-3.365-7.517-7.517
	s3.366-7.517,7.517-7.517h2.989c4.152,0,7.517,3.365,7.517,7.517S430.886,491.985,426.734,491.985z M401.83,491.985h-2.988
	c-4.152,0-7.517-3.365-7.517-7.517s3.366-7.517,7.517-7.517h2.988c4.152,0,7.517,3.365,7.517,7.517S405.982,491.985,401.83,491.985z
	 M376.926,491.985h-2.988c-4.152,0-7.517-3.365-7.517-7.517s3.366-7.517,7.517-7.517h2.988c4.152,0,7.517,3.365,7.517,7.517
	S381.079,491.985,376.926,491.985z M352.023,491.985h-2.989c-4.152,0-7.517-3.365-7.517-7.517s3.366-7.517,7.517-7.517h2.989
	c4.152,0,7.517,3.365,7.517,7.517S356.174,491.985,352.023,491.985z M327.12,491.985h-2.989c-4.152,0-7.517-3.365-7.517-7.517
	s3.366-7.517,7.517-7.517h2.989c4.152,0,7.517,3.365,7.517,7.517S331.271,491.985,327.12,491.985z M302.216,491.985h-2.989
	c-4.152,0-7.517-3.365-7.517-7.517s3.366-7.517,7.517-7.517h2.989c4.152,0,7.517,3.365,7.517,7.517S306.367,491.985,302.216,491.985
	z M277.311,491.985h-2.989c-4.152,0-7.517-3.365-7.517-7.517s3.366-7.517,7.517-7.517h2.989c4.152,0,7.517,3.365,7.517,7.517
	S281.463,491.985,277.311,491.985z M252.408,491.985h-2.988c-4.152,0-7.517-3.365-7.517-7.517s3.366-7.517,7.517-7.517h2.988
	c4.152,0,7.517,3.365,7.517,7.517C259.926,488.62,256.56,491.985,252.408,491.985z M227.504,491.985h-2.988
	c-4.152,0-7.517-3.365-7.517-7.517s3.366-7.517,7.517-7.517h2.988c4.152,0,7.517,3.365,7.517,7.517S231.656,491.985,227.504,491.985
	z M202.601,491.985h-2.989c-4.152,0-7.517-3.365-7.517-7.517s3.366-7.517,7.517-7.517h2.989c4.152,0,7.517,3.365,7.517,7.517
	S206.752,491.985,202.601,491.985z M177.697,491.985h-2.989c-4.152,0-7.517-3.365-7.517-7.517s3.366-7.517,7.517-7.517h2.989
	c4.152,0,7.517,3.365,7.517,7.517S181.848,491.985,177.697,491.985z M152.793,491.985h-2.988c-4.152,0-7.517-3.365-7.517-7.517
	s3.366-7.517,7.517-7.517h2.988c4.152,0,7.517,3.365,7.517,7.517S156.945,491.985,152.793,491.985z M127.889,491.985h-2.988
	c-4.152,0-7.517-3.365-7.517-7.517s3.366-7.517,7.517-7.517h2.988c4.152,0,7.517,3.365,7.517,7.517
	C135.407,488.62,132.041,491.985,127.889,491.985z M102.985,491.985h-2.988c-4.152,0-7.517-3.365-7.517-7.517
	s3.366-7.517,7.517-7.517h2.988c4.152,0,7.517,3.365,7.517,7.517S107.137,491.985,102.985,491.985z M78.081,491.985h-2.988
	c-4.152,0-7.517-3.365-7.517-7.517s3.366-7.517,7.517-7.517h2.988c4.152,0,7.517,3.365,7.517,7.517S82.233,491.985,78.081,491.985z
	 M42.39,470.019c-4.152,0-7.517-3.365-7.517-7.517v-2.988c0-4.153,3.366-7.517,7.517-7.517s7.517,3.365,7.517,7.517v2.988
	C49.908,466.653,46.543,470.019,42.39,470.019z M469.61,460.924c-4.152,0-7.517-3.365-7.517-7.517v-2.988
	c0-4.153,3.366-7.517,7.517-7.517s7.517,3.365,7.517,7.517v2.988C477.127,457.559,473.761,460.924,469.61,460.924z M42.39,445.115
	c-4.152,0-7.517-3.365-7.517-7.517v-2.988c0-4.153,3.366-7.517,7.517-7.517s7.517,3.365,7.517,7.517v2.988
	C49.908,441.75,46.543,445.115,42.39,445.115z M469.61,436.02c-4.152,0-7.517-3.365-7.517-7.517v-2.988
	c0-4.153,3.366-7.517,7.517-7.517s7.517,3.365,7.517,7.517v2.988C477.127,432.655,473.761,436.02,469.61,436.02z M42.39,420.212
	c-4.152,0-7.517-3.365-7.517-7.517v-2.988c0-4.153,3.366-7.517,7.517-7.517s7.517,3.365,7.517,7.517v2.988
	C49.908,416.846,46.543,420.212,42.39,420.212z M469.61,411.117c-4.152,0-7.517-3.365-7.517-7.517v-2.989
	c0-4.153,3.366-7.517,7.517-7.517s7.517,3.365,7.517,7.517v2.989C477.127,407.752,473.761,411.117,469.61,411.117z M42.39,395.308
	c-4.152,0-7.517-3.365-7.517-7.517v-2.989c0-4.153,3.366-7.517,7.517-7.517s7.517,3.365,7.517,7.517v2.989
	C49.908,391.942,46.543,395.308,42.39,395.308z M469.61,386.214c-4.152,0-7.517-3.365-7.517-7.517v-2.989
	c0-4.153,3.366-7.517,7.517-7.517s7.517,3.365,7.517,7.517v2.989C477.127,382.848,473.761,386.214,469.61,386.214z M42.39,370.404
	c-4.152,0-7.517-3.365-7.517-7.517v-2.988c0-4.153,3.366-7.517,7.517-7.517s7.517,3.365,7.517,7.517v2.988
	C49.908,367.039,46.543,370.404,42.39,370.404z M452.177,351.625h-2.988c-4.152,0-7.517-3.366-7.517-7.517
	c0-4.153,3.366-7.517,7.517-7.517h2.988c4.152,0,7.517,3.365,7.517,7.517C459.694,348.26,456.328,351.625,452.177,351.625z
	 M427.274,351.625h-2.989c-4.152,0-7.517-3.366-7.517-7.517c0-4.153,3.366-7.517,7.517-7.517h2.989c4.152,0,7.517,3.365,7.517,7.517
	C434.791,348.26,431.425,351.625,427.274,351.625z M402.369,351.625h-2.989c-4.152,0-7.517-3.366-7.517-7.517
	c0-4.153,3.366-7.517,7.517-7.517h2.989c4.152,0,7.517,3.365,7.517,7.517C409.887,348.26,406.521,351.625,402.369,351.625z
	 M377.466,351.625h-2.989c-4.152,0-7.517-3.366-7.517-7.517c0-4.153,3.366-7.517,7.517-7.517h2.989c4.152,0,7.517,3.365,7.517,7.517
	C384.983,348.26,381.618,351.625,377.466,351.625z M352.562,351.625h-2.988c-4.152,0-7.517-3.366-7.517-7.517
	c0-4.153,3.366-7.517,7.517-7.517h2.988c4.152,0,7.517,3.365,7.517,7.517C360.079,348.26,356.714,351.625,352.562,351.625z
	 M327.658,351.625h-2.989c-4.152,0-7.517-3.366-7.517-7.517c0-4.153,3.366-7.517,7.517-7.517h2.989c4.152,0,7.517,3.365,7.517,7.517
	C335.175,348.26,331.809,351.625,327.658,351.625z M302.755,351.625h-2.989c-4.152,0-7.517-3.366-7.517-7.517
	c0-4.153,3.366-7.517,7.517-7.517h2.989c4.152,0,7.517,3.365,7.517,7.517C310.272,348.26,306.906,351.625,302.755,351.625z
	 M277.851,351.625h-2.988c-4.152,0-7.517-3.366-7.517-7.517c0-4.153,3.366-7.517,7.517-7.517h2.988c4.152,0,7.517,3.365,7.517,7.517
	C285.368,348.26,282.002,351.625,277.851,351.625z M252.947,351.625h-2.989c-4.152,0-7.517-3.366-7.517-7.517
	c0-4.153,3.366-7.517,7.517-7.517h2.989c4.152,0,7.517,3.365,7.517,7.517C260.465,348.26,257.099,351.625,252.947,351.625z
	 M228.043,351.625h-2.989c-4.152,0-7.517-3.366-7.517-7.517c0-4.153,3.366-7.517,7.517-7.517h2.989c4.152,0,7.517,3.365,7.517,7.517
	C235.561,348.26,232.195,351.625,228.043,351.625z M203.139,351.625h-2.988c-4.152,0-7.517-3.366-7.517-7.517
	c0-4.153,3.366-7.517,7.517-7.517h2.988c4.152,0,7.517,3.365,7.517,7.517C210.656,348.26,207.291,351.625,203.139,351.625z
	 M178.236,351.625h-2.989c-4.152,0-7.517-3.366-7.517-7.517c0-4.153,3.366-7.517,7.517-7.517h2.989c4.152,0,7.517,3.365,7.517,7.517
	C185.753,348.26,182.388,351.625,178.236,351.625z M153.332,351.625h-2.988c-4.152,0-7.517-3.366-7.517-7.517
	c0-4.153,3.366-7.517,7.517-7.517h2.988c4.152,0,7.517,3.365,7.517,7.517C160.849,348.26,157.483,351.625,153.332,351.625z
	 M128.428,351.625h-2.988c-4.152,0-7.517-3.366-7.517-7.517c0-4.153,3.366-7.517,7.517-7.517h2.988c4.152,0,7.517,3.365,7.517,7.517
	C135.945,348.26,132.579,351.625,128.428,351.625z M103.525,351.625h-2.989c-4.152,0-7.517-3.366-7.517-7.517
	c0-4.153,3.366-7.517,7.517-7.517h2.989c4.152,0,7.517,3.365,7.517,7.517C111.042,348.26,107.676,351.625,103.525,351.625z
	 M78.62,351.625h-2.988c-4.152,0-7.517-3.366-7.517-7.517c0-4.153,3.366-7.517,7.517-7.517h2.988c4.152,0,7.517,3.365,7.517,7.517
	C86.138,348.26,82.772,351.625,78.62,351.625z"/>
<path style="fill:#F7931E;" d="M450.425,330.047c0,19.913,16.142,36.057,36.057,36.057c1.498,0,2.724,0,3.733,0v-37.448
	c0-2.833-2.318-5.152-5.151-5.152h-34.638C450.425,326.011,450.425,328.888,450.425,330.047z"/>
<g>
	<path style="fill:#FECF05;" d="M192.38,424.153c0,8.193-6.641,14.834-14.836,14.834l0,0c-8.194,0-14.836-6.641-14.836-14.834
		v-18.007c0-8.193,6.641-14.832,14.836-14.832l0,0c8.194,0,14.836,6.639,14.836,14.832V424.153z"/>
	<path style="fill:#FECF05;" d="M240,424.153c0,8.193-6.641,14.834-14.835,14.834l0,0c-8.194,0-14.836-6.641-14.836-14.834v-18.007
		c0-8.193,6.642-14.832,14.836-14.832l0,0c8.194,0,14.835,6.639,14.835,14.832V424.153z"/>
	<path style="fill:#FECF05;" d="M287.62,424.153c0,8.193-6.641,14.834-14.836,14.834l0,0c-8.194,0-14.836-6.641-14.836-14.834
		v-18.007c0-8.193,6.641-14.832,14.836-14.832l0,0c8.194,0,14.836,6.639,14.836,14.832V424.153z"/>
	<path style="fill:#FECF05;" d="M350.392,424.153c0,8.193-6.641,14.834-14.836,14.834l0,0c-8.194,0-14.836-6.641-14.836-14.834
		v-18.007c0-8.193,6.642-14.832,14.836-14.832l0,0c8.194,0,14.836,6.639,14.836,14.832V424.153z"/>
	<path style="fill:#FECF05;" d="M398.011,424.153c0,8.193-6.641,14.834-14.836,14.834l0,0c-8.194,0-14.836-6.641-14.836-14.834
		v-18.007c0-8.193,6.641-14.832,14.836-14.832l0,0c8.194,0,14.836,6.639,14.836,14.832V424.153z"/>
	<path style="fill:#FECF05;" d="M445.631,424.153c0,8.193-6.641,14.834-14.836,14.834l0,0c-8.194,0-14.836-6.641-14.836-14.834
		v-18.007c0-8.193,6.641-14.832,14.836-14.832l0,0c8.195,0,14.836,6.639,14.836,14.832V424.153z"/>
</g>
<g>
	<circle style="fill:#4B7D32;" cx="147.148" cy="437.223" r="8.171"/>
	<circle style="fill:#4B7D32;" cx="304.018" cy="437.223" r="8.171"/>
	<path style="fill:#4B7D32;" d="M127.537,383.797h-7.434c-4.152,0-7.517,3.365-7.517,7.517c0,4.123,3.321,7.472,7.434,7.517v40.156
		c0,4.153,3.366,7.517,7.517,7.517c4.152,0,7.517-3.365,7.517-7.517v-47.673C135.054,387.162,131.688,383.797,127.537,383.797z"/>
	<path style="fill:#4B7D32;" d="M177.545,383.797c-12.325,0-22.353,10.026-22.353,22.349v18.007
		c0,12.324,10.027,22.351,22.353,22.351c12.325,0,22.353-10.027,22.353-22.351v-18.007
		C199.898,393.822,189.871,383.797,177.545,383.797z M184.863,424.153c0,4.034-3.283,7.317-7.319,7.317s-7.319-3.282-7.319-7.317
		v-18.007c0-4.033,3.283-7.315,7.319-7.315s7.319,3.281,7.319,7.315V424.153z"/>
	<path style="fill:#4B7D32;" d="M225.165,383.797c-12.325,0-22.353,10.026-22.353,22.349v18.007
		c0,12.324,10.028,22.351,22.353,22.351s22.352-10.027,22.352-22.351v-18.007C247.517,393.822,237.49,383.797,225.165,383.797z
		 M232.483,424.153c0,4.034-3.283,7.317-7.318,7.317s-7.319-3.282-7.319-7.317v-18.007c0-4.033,3.284-7.315,7.319-7.315
		s7.318,3.281,7.318,7.315V424.153z"/>
	<path style="fill:#4B7D32;" d="M272.784,383.797c-12.325,0-22.353,10.026-22.353,22.349v18.007
		c0,12.324,10.027,22.351,22.353,22.351c12.325,0,22.353-10.027,22.353-22.351v-18.007
		C295.137,393.822,285.109,383.797,272.784,383.797z M280.103,424.153c0,4.034-3.283,7.317-7.319,7.317
		c-4.035,0-7.319-3.282-7.319-7.317v-18.007c0-4.033,3.283-7.315,7.319-7.315c4.035,0,7.319,3.281,7.319,7.315V424.153z"/>
	<path style="fill:#4B7D32;" d="M335.557,383.797c-12.325,0-22.353,10.026-22.353,22.349v18.007
		c0,12.324,10.028,22.351,22.353,22.351s22.353-10.027,22.353-22.351v-18.007C357.909,393.822,347.882,383.797,335.557,383.797z
		 M342.875,424.153c0,4.034-3.283,7.317-7.319,7.317c-4.035,0-7.319-3.282-7.319-7.317v-18.007c0-4.033,3.284-7.315,7.319-7.315
		c4.035,0,7.319,3.281,7.319,7.315V424.153z"/>
	<path style="fill:#4B7D32;" d="M383.175,383.797c-12.325,0-22.353,10.026-22.353,22.349v18.007
		c0,12.324,10.027,22.351,22.353,22.351c12.325,0,22.353-10.027,22.353-22.351v-18.007
		C405.529,393.822,395.502,383.797,383.175,383.797z M390.494,424.153c0,4.034-3.283,7.317-7.319,7.317
		c-4.035,0-7.319-3.282-7.319-7.317v-18.007c0-4.033,3.283-7.315,7.319-7.315c4.035,0,7.319,3.281,7.319,7.315V424.153z"/>
	<path style="fill:#4B7D32;" d="M430.795,383.797c-12.325,0-22.353,10.026-22.353,22.349v18.007
		c0,12.324,10.027,22.351,22.353,22.351c12.325,0,22.353-10.027,22.353-22.351v-18.007
		C453.148,393.822,443.12,383.797,430.795,383.797z M438.113,424.153c0,4.034-3.283,7.317-7.319,7.317
		c-4.035,0-7.319-3.282-7.319-7.317v-18.007c0-4.033,3.283-7.315,7.319-7.315c4.035,0,7.319,3.281,7.319,7.315V424.153z"/>
	<path style="fill:#4B7D32;" d="M89.797,408.307H74.769c-0.486,0-0.882-0.396-0.882-0.882v-1.77c0-0.485,0.396-0.88,0.882-0.88
		h17.239c4.152,0,7.517-3.365,7.517-7.517s-3.366-7.517-7.517-7.517H89.8v-2.207c0-4.153-3.366-7.517-7.517-7.517
		s-7.517,3.365-7.517,7.517v2.207c-8.775,0.002-15.914,7.14-15.914,15.914v1.77c0,8.776,7.139,15.917,15.917,15.917h15.028
		c0.486,0,0.882,0.396,0.882,0.881v1.767c0,0.486-0.396,0.882-0.882,0.882H69.022c-4.152,0-7.517,3.365-7.517,7.517
		s3.366,7.517,7.517,7.517h5.743v2.65c0,4.152,3.366,7.517,7.517,7.517s7.517-3.366,7.517-7.517v-2.65
		c8.775-0.002,15.914-7.141,15.914-15.917v-1.767C105.714,415.446,98.573,408.307,89.797,408.307z"/>
</g>
<g>
	<path style="fill:#F7931E;" d="M483.67,465.282c-19.914,0-36.057,16.142-36.057,36.057c0,1.498,0,2.724,0,3.733h37.448
		c2.833,0,5.151-2.318,5.151-5.151v-34.638C487.706,465.282,484.829,465.282,483.67,465.282z"/>
	<path style="fill:#F7931E;" d="M61.576,498.528c0-19.913-16.142-36.057-36.057-36.057c-1.498,0-2.724,0-3.733,0v37.448
		c0,2.833,2.318,5.152,5.151,5.152h34.638C61.576,502.565,61.576,499.686,61.576,498.528z"/>
	<path style="fill:#F7931E;" d="M28.33,363.293c19.914,0,36.057-16.142,36.057-36.057c0-1.498,0-2.724,0-3.733H26.938
		c-2.834,0-5.151,2.318-5.151,5.151v34.638C24.294,363.293,27.171,363.293,28.33,363.293z"/>
</g>
<path style="fill:#FED0A5;" d="M51.2,371.505c0,5.665-4.636,10.302-10.302,10.302H10.302C4.636,381.807,0,377.17,0,371.505v-0.094
	c0-5.665,4.636-10.301,10.302-10.301h30.596c5.666,0,10.302,4.636,10.302,10.301L51.2,371.505L51.2,371.505z"/>
<path style="fill:#EBB272;" d="M46.842,392.203c0,5.666-4.636,10.302-10.302,10.302H10.302C4.636,402.505,0,397.87,0,392.203v-0.094
	c0-5.666,4.636-10.302,10.302-10.302h26.239c5.666,0,10.302,4.636,10.302,10.302V392.203z"/>
<g>
	<path style="fill:#FED0A5;" d="M42.484,412.901c0,5.665-4.636,10.301-10.302,10.301H10.302C4.636,423.202,0,418.566,0,412.901
		v-0.094c0-5.666,4.636-10.302,10.302-10.302h21.881c5.666,0,10.302,4.636,10.302,10.302V412.901z"/>
	<path style="fill:#FED0A5;" d="M460.8,371.505c0,5.665,4.636,10.302,10.302,10.302h30.596c5.666,0,10.302-4.637,10.302-10.302
		v-0.094c0-5.665-4.636-10.301-10.302-10.301h-30.596c-5.666,0-10.302,4.636-10.302,10.301L460.8,371.505L460.8,371.505z"/>
</g>
<path style="fill:#EBB272;" d="M465.157,392.203c0,5.666,4.636,10.302,10.302,10.302h26.239c5.666,0,10.302-4.636,10.302-10.302
	v-0.094c0-5.666-4.636-10.302-10.302-10.302h-26.239c-5.666,0-10.302,4.636-10.302,10.302L465.157,392.203L465.157,392.203z"/>
<path style="fill:#FED0A5;" d="M469.515,412.901c0,5.665,4.636,10.301,10.302,10.301h21.881c5.666,0,10.302-4.636,10.302-10.301
	v-0.094c0-5.666-4.636-10.302-10.302-10.302h-21.881c-5.666,0-10.302,4.636-10.302,10.302V412.901z"/>
<path style="fill:#F7931E;" d="M414.317,263.902c-1.032,0-1.963-0.622-2.359-1.577c-5.335-12.888-9.268-16.823-22.149-22.163
	c-0.954-0.395-1.578-1.327-1.578-2.36s0.623-1.967,1.578-2.361c12.881-5.338,16.813-9.272,22.149-22.16
	c0.397-0.955,1.327-1.579,2.359-1.579c1.033,0,1.966,0.623,2.36,1.579c5.336,12.888,9.268,16.822,22.148,22.16
	c0.955,0.396,1.578,1.328,1.578,2.361c0,1.032-0.623,1.966-1.578,2.36c-12.881,5.34-16.812,9.275-22.148,22.163
	C416.282,263.28,415.35,263.902,414.317,263.902z"/>
<path style="fill:#6ECAD5;" d="M49.264,165.002c-0.91,0-1.731-0.549-2.08-1.39c-4.703-11.361-8.17-14.831-19.524-19.538
	c-0.842-0.348-1.391-1.17-1.391-2.08c0-0.912,0.549-1.734,1.391-2.082c11.354-4.707,14.821-8.174,19.524-19.536
	c0.349-0.842,1.17-1.39,2.08-1.39c0.911,0,1.733,0.548,2.081,1.39c4.704,11.362,8.17,14.829,19.525,19.536
	c0.842,0.349,1.39,1.17,1.39,2.082c0,0.91-0.548,1.733-1.39,2.08c-11.355,4.707-14.821,8.177-19.525,19.538
	C50.997,164.453,50.176,165.002,49.264,165.002z"/>
<path style="fill:#F8B816;" d="M99.964,78.226c-2.004,2.004-5.281,2.004-7.285,0L82.481,68.028c-2.004-2.003-2.004-5.28,0-7.284
	L92.68,50.545c2.004-2.003,5.281-2.003,7.285,0l10.198,10.199c2.004,2.004,2.004,5.28,0,7.284L99.964,78.226z"/>
<path style="fill:#FECF05;" d="M468.24,185.426c-2.004,2.004-5.281,2.004-7.285,0l-12.819-12.818c-2.004-2.004-2.004-5.282,0-7.285
	l12.819-12.819c2.004-2.003,5.281-2.003,7.285,0l12.818,12.819c2.004,2.004,2.004,5.282,0,7.285L468.24,185.426z"/>
<path style="fill:#89C947;" d="M418.407,85.469c-2.004,2.003-4.242,1.402-4.975-1.334l-7.753-28.931
	c-0.733-2.736,0.906-4.376,3.642-3.643l28.933,7.752c2.736,0.733,3.337,2.972,1.333,4.975L418.407,85.469z"/>
<path style="fill:#FECF05;" d="M84.892,248.238c-2.004,2.003-4.242,1.401-4.975-1.335l-7.753-28.931
	c-0.733-2.735,0.906-4.375,3.642-3.642l28.933,7.751c2.736,0.734,3.337,2.972,1.333,4.976L84.892,248.238z"/>
<path style="fill:#FED0A5;" d="M168.452,72.579v94.681c0,43.875,35.739,79.441,79.823,79.441h15.45
	c44.084,0,79.824-35.566,79.824-79.441V72.579H168.452z"/>
<path style="fill:#0059AD;" d="M279.52,6.928H232.48c-46.763,0-84.674,37.909-84.674,84.673v35.068
	c3.03-1.924,6.62-3.054,10.48-3.054c3.729,0,7.201,1.059,10.165,2.862v-18.149h88.577c13.948,0,25.395-10.633,26.616-24.2
	c2.559,12.035,13.293,21.069,26.148,21.069h33.757v21.279c2.964-1.804,6.436-2.862,10.164-2.862c3.861,0,7.449,1.13,10.48,3.053
	V91.601C364.193,44.837,326.284,6.928,279.52,6.928z"/>
<path style="fill:#EBB272;" d="M353.714,123.615c-3.729,0-7.201,1.058-10.164,2.862v40.782c0,4.795-0.451,9.484-1.269,14.045
	c3.216,2.318,7.158,3.699,11.433,3.699c10.787,0,19.533-8.703,19.533-19.44v-22.51C373.247,132.318,364.5,123.615,353.714,123.615z"
	/>
<g>
	<path style="fill:#005289;" d="M245.719,76.103c-4.152,0-7.517,3.365-7.517,7.517v7.224c0,7.831-4.785,14.549-11.595,17.484h21.752
		c3.083-5.119,4.877-11.091,4.877-17.484V83.62C253.236,79.469,249.87,76.103,245.719,76.103z"/>
	<path style="fill:#005289;" d="M210.321,108.329c3.083-5.119,4.876-11.093,4.876-17.484v-7.224c0-4.153-3.366-7.517-7.517-7.517
		c-4.152,0-7.517,3.365-7.517,7.517v7.224c0,7.822-4.771,14.541-11.566,17.484H210.321z"/>
</g>
<path style="fill:#EBB272;" d="M168.452,167.259v-40.782c-2.964-1.803-6.436-2.862-10.165-2.862
	c-10.788,0-19.534,8.703-19.534,19.441v22.51c0,10.737,8.746,19.44,19.534,19.44c4.275,0,8.217-1.382,11.434-3.701
	C168.903,176.742,168.452,172.055,168.452,167.259z"/>
<g>
	<path style="fill:#8C6239;" d="M262.328,160.699h-5.138v-12.39c0-4.153-3.366-7.517-7.517-7.517s-7.517,3.365-7.517,7.517v16.752
		c0,5.885,4.794,10.673,10.687,10.673h9.486c4.152,0,7.517-3.365,7.517-7.517S266.48,160.699,262.328,160.699z"/>
	<path style="fill:#8C6239;" d="M213.193,139.314c-4.152,0-7.517,3.365-7.517,7.517v9.226c0,4.153,3.366,7.517,7.517,7.517
		c4.152,0,7.517-3.365,7.517-7.517v-9.226C220.71,142.679,217.345,139.314,213.193,139.314z"/>
	<path style="fill:#8C6239;" d="M298.807,139.314c-4.152,0-7.517,3.365-7.517,7.517v9.226c0,4.153,3.366,7.517,7.517,7.517
		s7.517-3.365,7.517-7.517v-9.226C306.324,142.679,302.958,139.314,298.807,139.314z"/>
</g>
<path style="fill:#FFFFFF;" d="M251.952,225.125c-17.214,0-31.413-13.455-32.329-30.632c-0.075-1.411,0.433-2.791,1.406-3.818
	c0.973-1.025,2.324-1.608,3.738-1.608h62.464c1.413,0,2.765,0.581,3.738,1.608c0.973,1.025,1.481,2.406,1.406,3.818
	c-0.916,17.177-15.116,30.632-32.329,30.632H251.952z"/>
<path style="opacity:0.1;enable-background:new    ;" d="M185.981,167.259v-58.931h-17.529v58.931
	c0,43.875,35.739,79.441,79.823,79.441h15.45c0.349,0,0.692-0.021,1.039-0.026C221.161,246.118,185.981,210.788,185.981,167.259z"/>
<g>
</g>
<g>
</g>
<g>
</g>
<g>
</g>
<g>
</g>
<g>
</g>
<g>
</g>
<g>
</g>
<g>
</g>
<g>
</g>
<g>
</g>
<g>
</g>
<g>
</g>
<g>
</g>
<g>
</g>
</svg>
