<?xml version="1.0" encoding="iso-8859-1"?>
<!-- Generator: Adobe Illustrator 19.0.0, SVG Export Plug-In . SVG Version: 6.00 Build 0)  -->
<svg version="1.1" id="Capa_1" xmlns="http://www.w3.org/2000/svg" xmlns:xlink="http://www.w3.org/1999/xlink" x="0px" y="0px"
	 viewBox="0 0 512 512" style="enable-background:new 0 0 512 512;" xml:space="preserve">
<polygon style="fill:#FFBE51;" points="440.1,102.759 343.924,102.759 343.924,6.582 "/>
<polygon style="fill:#FFE451;" points="440.1,102.759 440.1,503.492 71.425,503.492 71.425,6.582 343.924,6.582 343.924,102.759 "/>
<rect x="71.425" y="6.582" style="fill:#FFBE51;" width="64.117" height="496.909"/>
<polygon style="fill:#AAC4DA;" points="287.822,375.257 287.822,439.375 271.793,439.375 239.733,439.375 223.704,439.375 
	223.704,375.257 239.733,375.257 271.793,375.257 "/>
<rect x="239.737" y="439.375" style="fill:#D9EEF7;" width="32.059" height="32.058"/>
<path style="fill:#AAC4DA;" d="M271.793,351.213v24.044h-32.059v-24.044l0.16-1.122c5.209,0.721,10.499,1.122,15.869,1.122
	c5.37,0,10.659-0.4,15.869-1.122L271.793,351.213z"/>
<path style="fill:#69F0F7;" d="M255.763,158.862c44.241,0,80.147,35.905,80.147,80.147s-35.905,80.147-80.147,80.147
	s-80.147-35.905-80.147-80.147C175.616,194.767,211.522,158.862,255.763,158.862z"/>
<path style="fill:#D9EEF7;" d="M255.763,126.802c61.953,0,112.205,50.252,112.205,112.206c0,56.583-41.916,103.389-96.337,111.083
	c-5.209,0.721-10.499,1.122-15.869,1.122s-10.66-0.4-15.869-1.122c-54.419-7.694-96.337-54.5-96.337-111.083
	C143.558,177.055,193.809,126.802,255.763,126.802z M335.909,239.008c0-44.241-35.905-80.147-80.147-80.147
	s-80.147,35.905-80.147,80.147s35.905,80.147,80.147,80.147S335.909,283.248,335.909,239.008z"/>
<path style="fill:#1DBCC5;" d="M231.718,239.008c0-34.358,21.697-63.604,52.095-74.994c-8.743-3.276-18.169-5.153-28.051-5.153
	c-44.241,0-80.147,35.905-80.147,80.147c0,44.24,35.905,80.147,80.147,80.147c9.882,0,19.308-1.877,28.051-5.153
	C253.416,302.612,231.718,273.366,231.718,239.008z"/>
<g>
	<path style="fill:#231F20;" d="M347.287,0h-147.39v15.09h136.719v96.177h96.176v385.642h-80.616V512h95.707V100.596L347.287,0z
		 M351.707,25.761l70.414,70.415h-70.414V25.761z"/>
	<polygon style="fill:#231F20;" points="79.208,15.09 175.853,15.09 175.853,0 64.117,0 64.117,512 328.133,512 328.133,496.909 
		79.208,496.909 	"/>
</g>
<g>
	<rect x="111.74" y="48.088" style="fill:#FFFFFF;" width="88.159" height="15.09"/>
	<rect x="111.74" y="80.151" style="fill:#FFFFFF;" width="16.03" height="15.09"/>
</g>
<g>
	<rect x="143.792" y="80.151" style="fill:#231F20;" width="16.03" height="15.09"/>
	<rect x="175.854" y="80.151" style="fill:#231F20;" width="16.029" height="15.09"/>
	<path style="fill:#231F20;" d="M256,120.22c-66.031,0-119.751,53.72-119.751,119.751c0,29.024,10.523,57.025,29.63,78.846
		c17.428,19.902,40.858,33.429,66.546,38.566v11.292h-16.03v79.208h16.03v32.059h47.149v-32.059h16.03v-79.208h-16.03v-11.292
		c25.689-5.137,49.12-18.665,66.546-38.567c19.107-21.821,29.63-49.822,29.63-78.846C375.751,173.94,322.031,120.22,256,120.22z
		 M264.484,464.85h-16.968v-16.969h16.968V464.85z M280.514,432.792h-49.027v-49.027h49.027V432.792z M247.516,368.675v-9.264
		c2.863,0.205,5.698,0.31,8.485,0.31c2.786,0,5.62-0.105,8.484-0.31v9.264H247.516z M270.833,343.58
		c-5.034,0.697-10.025,1.051-14.833,1.051c-4.806,0-9.795-0.353-14.829-1.05c-51.211-7.25-89.832-51.79-89.832-103.61
		c0-57.71,46.951-104.661,104.661-104.661c57.709,0,104.66,46.951,104.66,104.661C360.661,291.798,322.034,336.341,270.833,343.58z"
		/>
	<path style="fill:#231F20;" d="M339.67,213.662l-14.395,4.527c2.207,7.02,3.327,14.348,3.327,21.781
		c0,40.032-32.569,72.601-72.601,72.601s-72.601-32.569-72.601-72.601s32.569-72.601,72.601-72.601
		c25.823,0,49.917,13.912,62.882,36.307l13.06-7.56c-15.654-27.039-44.752-43.837-75.942-43.837
		c-48.353,0-87.692,39.339-87.692,87.692s39.339,87.692,87.692,87.692s87.692-39.339,87.692-87.692
		C343.692,231,342.34,222.149,339.67,213.662z"/>
	<rect x="247.987" y="400.733" style="fill:#231F20;" width="16.03" height="15.09"/>
</g>
<g>
	<polygon style="fill:#FFFFFF;" points="304.088,279.574 304.088,264.484 287.589,264.484 287.589,200.367 232.426,200.367 
		232.426,232.426 199.898,232.426 199.898,247.516 247.516,247.516 247.516,215.458 272.499,215.458 272.499,279.574 	"/>
	<rect x="95.704" y="464.847" style="fill:#FFFFFF;" width="16.029" height="15.09"/>
</g>
<rect x="127.766" y="464.847" style="fill:#231F20;" width="16.029" height="15.09"/>
<rect x="400.26" y="464.847" style="fill:#FFFFFF;" width="16.03" height="15.09"/>
<g>
</g>
<g>
</g>
<g>
</g>
<g>
</g>
<g>
</g>
<g>
</g>
<g>
</g>
<g>
</g>
<g>
</g>
<g>
</g>
<g>
</g>
<g>
</g>
<g>
</g>
<g>
</g>
<g>
</g>
</svg>
