<?xml version="1.0" encoding="iso-8859-1"?>
<!-- Generator: Adobe Illustrator 19.0.0, SVG Export Plug-In . SVG Version: 6.00 Build 0)  -->
<svg version="1.1" id="Layer_1" xmlns="http://www.w3.org/2000/svg" xmlns:xlink="http://www.w3.org/1999/xlink" x="0px" y="0px"
	 viewBox="0 0 512 512" style="enable-background:new 0 0 512 512;" xml:space="preserve">
<g>
	<rect x="194.186" y="116.454" style="fill:#466D77;" width="18.01" height="55.037"/>
	<rect x="299.81" y="116.454" style="fill:#466D77;" width="18.01" height="55.037"/>
</g>
<g>
	<path style="fill:#49DB95;" d="M442.8,75.819c1.123,0.281,2.232,0.561,3.341,0.855l0,0c25.172,6.524,45.837,24.459,55.839,48.462
		l2.154,5.169c9.786,23.483,10.464,49.771,1.904,73.727l0,0l-15.969-3.189v-0.013L379.74,178.763l-7.143-42.308l-4.822-28.545
		c-31.759-8.763-71.772-13.138-111.771-13.138c-40.011,0-80.024,4.375-111.771,13.138l-4.822,28.558l-7.156,42.295L21.938,200.829
		l-15.98,3.202l0,0c-8.552-23.957-7.872-50.242,1.91-73.725l2.153-5.168c9.998-24.004,30.662-41.941,55.834-48.464l0,0
		c1.109-0.293,2.232-0.574,3.355-0.855C182.689,47.122,329.32,47.122,442.8,75.819z"/>
	<path style="fill:#49DB95;" d="M443.167,413.024l-374.324-0.012l2.581-19.475l20.472-154.6c1.345-10.11,8.897-18.298,18.875-20.424
		l34.46-7.372c9.81-2.089,17.29-10.026,18.815-19.931l2.99-19.487c1.813-11.779,11.947-20.472,23.858-20.472h130.226
		c11.911,0,22.044,8.693,23.845,20.472l2.99,19.487c1.525,9.906,9.005,17.842,18.815,19.931l34.46,7.372
		c9.978,2.137,17.53,10.314,18.875,20.424l20.484,154.6L443.167,413.024z"/>
</g>
<g>
	<path style="fill:#3CC681;" d="M104.061,413.009l23.055-174.065c1.34-10.118,8.899-18.298,18.881-20.432l34.458-7.366
		c9.801-2.095,17.287-10.03,18.81-19.936l2.993-19.489c1.809-11.775,11.941-20.469,23.854-20.469h-22.921h-12.299
		c-11.913,0-22.044,8.694-23.854,20.469l-2.993,19.489c-1.522,9.906-9.008,17.841-18.81,19.936l-34.46,7.366
		c-9.98,2.134-17.54,10.314-18.879,20.432L68.841,413.009H104.061z"/>
	<path style="fill:#3CC681;" d="M115.469,141.142l24.002-5.007l-0.06,0.336l-7.156,42.288L21.936,200.828l-15.981,3.206
		C1.981,192.904,0,181.257,0,169.634c0-1.465,0.036-2.93,0.096-4.395l65.701-13.724L115.469,141.142z"/>
	<path style="fill:#3CC681;" d="M506.039,204.034l-15.969-3.194v-0.012l-110.33-22.069l-7.144-42.3l-0.06-0.324l139.363,29.104
		C512.462,178.315,510.517,191.499,506.039,204.034z"/>
</g>
<circle style="fill:#FFFFFF;" cx="256.009" cy="289.712" r="81.922"/>
<path style="fill:#3CC681;" d="M256.004,380.633c-50.134,0-90.923-40.787-90.923-90.922s40.788-90.923,90.923-90.923
	s90.923,40.787,90.923,90.923C346.927,339.846,306.139,380.633,256.004,380.633z M256.004,216.799
	c-40.204,0-72.912,32.708-72.912,72.912c0,40.204,32.708,72.911,72.912,72.911c40.205,0,72.913-32.708,72.913-72.911
	C328.917,249.507,296.209,216.799,256.004,216.799z"/>
<circle style="fill:#466D77;" cx="256.009" cy="289.712" r="24.17"/>
<polygon style="fill:#3CC681;" points="443.167,413.024 68.843,413.012 71.425,393.537 440.586,393.537 "/>
<polygon style="fill:#49DB95;" points="467.312,457.704 44.698,457.704 48.749,411.808 463.261,411.808 "/>
<polygon style="fill:#3CC681;" points="48.749,411.808 44.698,457.704 88.326,457.704 92.378,411.808 "/>
<g>
</g>
<g>
</g>
<g>
</g>
<g>
</g>
<g>
</g>
<g>
</g>
<g>
</g>
<g>
</g>
<g>
</g>
<g>
</g>
<g>
</g>
<g>
</g>
<g>
</g>
<g>
</g>
<g>
</g>
</svg>
