<?xml version="1.0" encoding="UTF-8"?>
<svg width="161px" height="161px" viewBox="0 0 161 161" version="1.1" xmlns="http://www.w3.org/2000/svg" xmlns:xlink="http://www.w3.org/1999/xlink">
    <!-- Generator: Sketch 57.1 (83088) - https://sketch.com -->
    <title>hand-money</title>
    <desc>Created with Sketch.</desc>
    <g id="Page-1" stroke="none" stroke-width="1" fill="none" fill-rule="evenodd">
        <g id="hand-money" transform="translate(-60.000000, -60.000000)">
            <g transform="translate(60.000000, 60.000000)">
                <circle id="Oval-Copy-3" fill="#f1c40f" opacity="0.15" cx="80.5" cy="80.5" r="80.5"></circle>
                <g id="Group-4-Copy" transform="translate(37.147637, 31.652102)">
                    <g id="Group-2-Copy" transform="translate(0.000000, 49.414255)">
                        <path d="" id="Path-72" stroke="#979797" stroke-width="4.08060383"></path>
                        <g id="Group-3" transform="translate(11.074638, 0.064266)">
                            <path d="M26.612833,12.5874058 C26.612833,13.7142335 27.5263073,14.6277078 28.6531349,14.6277078 C32.4200905,14.6277078 32.4200905,14.6277078 40.9917127,14.6277078 C48.6597688,14.6277078 52.8048034,10.2466882 52.8048034,2.25823307 C52.8048034,1.13140543 51.8913292,0.21793115 50.7645015,0.21793115 L24.6760289,0.21793115 C22.074766,0.345885138 20.2396205,0.668651292 18.979431,1.26101868 C17.8302282,1.80121544 16.4100772,2.78372039 14.6598703,4.2240105 L14.5071501,4.36324246 L1.81529511,17.1698246 C1.02210073,17.9701891 1.02791318,19.2620237 1.82827759,20.0552181 C2.628642,20.8484125 3.92047664,20.8426 4.71367102,20.0422356 C19.3131123,14.3211307 26.612833,11.8361874 26.612833,12.5874058 Z" id="Path-73" fill="#F3BE85" fill-rule="nonzero"></path>
                            <path d="M5.30478498,30.1613146 L5.30478498,18.6060301 L1.22418115,18.6060301 L1.22418115,32.4010411 C1.22418115,33.6028026 2.25764907,34.5442509 3.45420376,34.4325032 L53.3903785,29.7689034 C53.7238029,29.7377645 54.0444372,29.625035 54.3239873,29.4406626 L82.7798418,10.673106 C83.6533793,10.0969798 83.9494469,8.95339402 83.4652261,8.02575217 C80.2785704,1.92094409 73.2992923,1.25753435 63.2921541,5.41446963 L51.1228112,10.5807526 C45.4527894,10.4101176 37.5347157,6.67863943 27.9604135,8.02575217 C15.6549157,9.75714653 1.87782594,16.7159406 -9.09494702e-13,16.9484069 L5.30478498,30.1613146 Z" id="Path-74" fill="#F3BE85" fill-rule="nonzero"></path>
                            <path d="M52.1537964,9.43294973 L51.1811062,10.7986107 C49.5523645,12.5404682 47.5079055,13.0449178 44.231132,13.0449178 C37.7159394,13.0449178 33.6030802,13.0449178 31.8925542,13.0449178" id="Path" stroke="#C5925C" stroke-width="1.63224153" stroke-linejoin="round"></path>
                        </g>
                        <rect id="Rectangle" fill="#D09E00" x="0" y="14.2424481" width="16.3305728" height="25.5120836"></rect>
                    </g>
                    <circle id="Oval" fill="#FFCF3A" cx="44.8355535" cy="20.4030192" r="20.4030192"></circle>
                    <path d="M46.4426663,-4.61852778e-14 C57.7109426,-4.61852778e-14 66.8456854,9.13474283 66.8456854,20.4030192 C66.8456854,31.6712955 57.7109426,40.8060383 46.4426663,40.8060383 C45.9016854,40.8060383 45.3656221,40.7849838 44.8352511,40.7436495 C55.3527657,39.9240176 63.6314599,31.1303147 63.6314599,20.4030192 C63.6314599,9.67572366 55.3527657,0.882020764 44.8358558,0.062388801 C45.3656221,0.0210545079 45.9016854,-4.61852778e-14 46.4426663,-4.61852778e-14 Z" id="Combined-Shape" fill="#D09E00"></path>
                    <path d="M45.5170258,21.3771704 L45.5170258,27.3828124 C48.0157236,27.1928529 49.0678069,26.0092593 49.0678069,24.4457466 C49.0678069,22.940683 48.2495199,22.0493347 45.5170258,21.3771704 Z M43.8658396,18.0017365 L43.8658396,12.302952 C41.761673,12.5659728 40.6511406,13.7787911 40.6511406,15.1085075 C40.6511406,16.4382238 41.5278767,17.4172458 43.8658396,18.0017365 Z M45.5170258,18.3962677 L46.2184147,18.5716149 C50.0614411,19.4629633 52.1656077,21.0410882 52.1656077,24.1535012 C52.1656077,27.7335069 49.2431541,29.7646121 45.5170258,30.0276329 L45.5170258,32.4824939 L43.8658396,32.4824939 L43.8658396,30.0276329 C40.1543235,29.7499998 37.2172577,27.6604455 37.1149718,24.1535012 L40.1397113,24.1535012 C40.4027321,25.8631366 41.5132644,27.1197916 43.8658396,27.3682002 L43.8658396,20.9972514 L43.2667366,20.8511287 C39.5552205,19.9890049 37.5533399,18.3232064 37.5533399,15.356916 C37.5533399,12.083768 40.1835481,9.92115237 43.8658396,9.64351928 L43.8658396,7.17404602 L45.5170258,7.17404602 L45.5170258,9.64351928 C49.1700928,9.93576464 51.8149133,12.1276048 51.9318114,15.4445896 L48.8924597,15.4445896 C48.7025002,13.6034439 47.3873961,12.5367483 45.5170258,12.302952 L45.5170258,18.3962677 Z" id="$" fill="#FFFAEB" fill-rule="nonzero"></path>
                </g>
            </g>
        </g>
    </g>
</svg>