<?xml version="1.0" encoding="UTF-8"?>
<svg width="161px" height="162px" viewBox="0 0 161 162" version="1.1" xmlns="http://www.w3.org/2000/svg" xmlns:xlink="http://www.w3.org/1999/xlink">
    <!-- Generator: Sketch 57.1 (83088) - https://sketch.com -->
    <title>mail</title>
    <desc>Created with Sketch.</desc>
    <g id="Page-1" stroke="none" stroke-width="1" fill="none" fill-rule="evenodd">
        <g id="mail" transform="translate(-60.000000, -60.000000)">
            <g transform="translate(60.000000, 60.250371)">
                <circle id="Oval" fill="#f1c40f" opacity="0.15" cx="80.5" cy="80.5" r="80.5"></circle>
                <g id="Group" transform="translate(40.851675, 24.401189)">
                    <path d="M8.38982094,43.252449 L70.5699695,43.252449 C75.2035396,43.252449 78.9597904,47.0086998 78.9597904,51.6422699 L78.9597904,97.832125 L78.9597904,97.832125 L-3.89022148e-13,97.832125 L-3.89022148e-13,51.6422699 C-3.89589597e-13,47.0086998 3.75625078,43.252449 8.38982094,43.252449 Z" id="Rectangle-Copy-22" fill="#f1c40f" transform="translate(39.479895, 70.542287) rotate(-180.000000) translate(-39.479895, -70.542287) "></path>
                    <path d="M-3.96127575e-13,43.252449 L33.2833159,6.78870168 C36.4070953,3.36642542 41.7137219,3.12444589 45.1359981,6.24822527 C45.3242743,6.42007963 45.5046202,6.60042555 45.6764745,6.78870168 L78.9597904,43.252449 L78.9597904,43.252449 L-3.96127575e-13,43.252449 Z" id="Path-70" fill="#f1c40f"></path>
                    <polygon id="Path-71" fill="#f1c40f" points="5.45519185e-12 43.252449 29.052254 70.542287 49.7121012 70.542287 78.9597904 43.252449"></polygon>
                    <path d="M12.9936506,15.0792342 L65.836364,14.2359303 C68.0819412,14.2000937 69.9313924,15.9914424 69.9672291,18.2370195 C69.9675742,18.2586471 69.9677468,18.2802771 69.9677468,18.3019075 L69.9677468,51.6516301 L69.9677468,51.6516301 L49.7121012,70.542287 L29.052254,70.542287 L8.99204364,51.7076143 L8.99204364,19.1452113 C8.99204364,16.9246479 10.7733699,15.1146671 12.9936506,15.0792342 Z" id="Rectangle" fill="#FBF8FF"></path>
                    <path d="M22.6542176,43.4988334 L56.3055728,43.4988334" id="Shape-Copy-6" stroke="#f1c40f" stroke-width="2.03324742" stroke-linecap="round" transform="translate(39.479895, 43.498833) rotate(-180.000000) translate(-39.479895, -43.498833) "></path>
                    <path d="M22.6542176,31.8660364 L36.3675015,31.8660364" id="Shape-Copy-8" stroke="#f1c40f" stroke-width="2.03324742" stroke-linecap="round" transform="translate(29.510860, 31.866036) rotate(-180.000000) translate(-29.510860, -31.866036) "></path>
                    <path d="M22.6542176,52.6056141 L56.3055728,52.6056141" id="Shape-Copy-7" stroke="#f1c40f" stroke-width="2.03324742" stroke-linecap="round" transform="translate(39.479895, 52.605614) rotate(-180.000000) translate(-39.479895, -52.605614) "></path>
                    <path d="M2.22818953,95.7454165 L33.7447824,66.2277963 C36.9711548,63.2060599 41.9886406,63.2060547 45.2150193,66.2277842 L76.730502,95.7442403 L76.730502,95.7442403 C76.1835073,96.2858423 75.4653458,96.7695867 74.5760174,97.1954734 C73.6866891,97.6213602 72.6722205,97.8336253 71.5326114,97.8322688 L7.26341186,97.8322688 C5.91303012,97.7078962 4.88682803,97.4641871 4.1848056,97.1011415 C3.48278316,96.7380959 2.8305778,96.2861876 2.22818953,95.7454165 Z" id="Path-70-Copy" fill="#f1c40f"></path>
                </g>
            </g>
        </g>
    </g>
</svg>