<?xml version="1.0" encoding="UTF-8"?>
<svg width="161px" height="162px" viewBox="0 0 161 162" version="1.1" xmlns="http://www.w3.org/2000/svg" xmlns:xlink="http://www.w3.org/1999/xlink">
    <!-- Generator: Sketch 57.1 (83088) - https://sketch.com -->
    <title>shield</title>
    <desc>Created with Sketch.</desc>
    <g id="Page-1" stroke="none" stroke-width="1" fill="none" fill-rule="evenodd">
        <g id="shield" transform="translate(-60.000000, -60.000000)">
            <g transform="translate(60.000000, 60.250371)">
                <circle id="Oval-Copy" fill="#f1c40f" opacity="0.15" cx="80.5" cy="80.5" r="80.5"></circle>
                <g id="Group" transform="translate(45.124799, 45.029314)">
                    <path d="M6.66324589,-9.41469125e-14 L68.9345993,-9.41469125e-14 C71.7998097,-9.97628791e-14 74.1225216,2.32271193 74.1225216,5.1879223 C74.1225216,16.9986023 74.1225216,28.8092824 74.1225216,40.6199624 C74.1225216,67.4642796 40.3928837,78.4643181 40.3928837,78.4643181 C40.3928837,78.4643181 34.6749015,78.4643181 33.7296379,78.4643181 C33.7290483,78.4736251 6.66324589,63.4189323 6.66324589,40.6199624 C6.66324589,29.9730378 6.66324589,16.4330503 6.66324589,-9.41469125e-14 Z" id="Rectangle" fill="#af8f10"></path><!-- garo color-->
                    <path d="M5.1879223,-2.7533531e-14 L62.2713534,-2.7533531e-14 C65.1365638,-3.31494977e-14 67.4592757,2.32271193 67.4592757,5.1879223 C67.4592757,16.9986023 67.4592757,28.8092824 67.4592757,40.6199624 C67.4592757,67.4642796 33.7296379,78.4643138 33.7296379,78.4643138 C33.7296379,78.4643138 3.46389584e-14,67.4642796 3.46389584e-14,40.6199624 C3.46389584e-14,28.8092824 3.46389584e-14,16.9986023 3.46389584e-14,5.1879223 C3.42880713e-14,2.32271193 2.32271193,-2.96717357e-14 5.1879223,-2.7533531e-14 Z" id="Rectangle" fill="#f1c40f"></path>
                    <polyline id="Shape-Copy-9" stroke="#af8f10" stroke-width="8.30067568" stroke-linecap="round" stroke-linejoin="round" transform="translate(38.050951, 38.353699) rotate(-180.000000) translate(-38.050951, -38.353699) " points="23.7533672 48.0700668 42.8467603 28.6373311 52.348534 36.9393186"></polyline>
                    <polyline id="Shape-Copy-8" stroke="#FFFFFF" stroke-width="8.30067568" stroke-linecap="round" stroke-linejoin="round" transform="translate(34.869025, 34.304341) rotate(-180.000000) translate(-34.869025, -34.304341) " points="20.5714415 44.0207092 39.6648346 24.5879735 49.1666083 32.889961"></polyline>
                </g>
            </g>
        </g>
    </g>
</svg>