<?xml version="1.0" encoding="UTF-8"?>
<svg width="161px" height="161px" viewBox="0 0 161 161" version="1.1" xmlns="http://www.w3.org/2000/svg" xmlns:xlink="http://www.w3.org/1999/xlink">
    <!-- Generator: Sketch 57.1 (83088) - https://sketch.com -->
    <title>wall</title>
    <desc>Created with Sketch.</desc>
    <g id="Page-1" stroke="none" stroke-width="1" fill="none" fill-rule="evenodd">
        <g id="wall" transform="translate(-60.000000, -60.000000)">
            <g transform="translate(60.000000, 60.000000)">
                <circle id="Oval-Copy-2" fill="#f1c40f" opacity="0.15" cx="80.5" cy="80.5" r="80.5"></circle>
                <g id="Group-2" transform="translate(43.061663, 29.023220)">
                    <g id="Group" transform="translate(0.000000, 42.424846)">
                        <rect id="Rectangle" fill="#FFCF3A" x="2.01706344" y="1.00853172" width="68.8708982" height="16.1365075"></rect>
                        <rect id="Rectangle-Copy-3" fill="#EBB300" x="34.6971614" y="1.00853172" width="36.1908002" height="16.1365075"></rect>
                        <rect id="Rectangle-Copy" fill="#FFCF3A" x="1.27542421e-12" y="17.1450393" width="74.9220885" height="16.1365075"></rect>
                        <rect id="Rectangle-Copy-2" fill="#FFCF3A" x="6.05119033" y="33.2815468" width="64.8367713" height="16.1365075"></rect>
                        <rect id="Rectangle-Copy-4" fill="#EBB300" x="6.05119033" y="33.2815468" width="28.6094188" height="16.1365075"></rect>
                        <rect id="Rectangle-Copy-5" fill="#EBB300" x="-3.77475828e-13" y="17.1450393" width="12.6694359" height="16.1365075"></rect>
                        <path d="M2.01706344,1.00853172 L70.8879616,1.00853172" id="Path-38" stroke="#FFDF66" stroke-width="2.01706344"></path>
                        <path d="M2.33058017e-12,17.1450393 L74.9220885,17.1450393" id="Path-38-Copy" stroke="#FFDF66" stroke-width="2.01706344"></path>
                        <path d="M9.69890834e-13,33.2815468 L74.9220885,33.2815468" id="Path-38-Copy-2" stroke="#FFDF66" stroke-width="2.01706344"></path>
                        <path d="M6.05119033,49.4180543 L70.8879616,49.4180543" id="Path-38-Copy-3" stroke="#FFDF66" stroke-width="2.01706344"></path>
                        <path d="M34.6788852,1.00853172 L34.6788852,17.1450393" id="Path-45" stroke="#FFDF66" stroke-width="2.01706344"></path>
                        <path d="M34.6788852,33.2815468 L34.6788852,49.4180543" id="Path-45-Copy-3" stroke="#FFDF66" stroke-width="2.01706344"></path>
                        <path d="M58.4948398,17.1450393 L58.4948398,33.2815468" id="Path-45-Copy" stroke="#FFDF66" stroke-width="2.01706344"></path>
                        <path d="M12.6694359,17.1450393 L12.6694359,33.2815468" id="Path-45-Copy-2" stroke="#FFDF66" stroke-width="2.01706344"></path>
                    </g>
                    <path d="M23.7922364,26.0249985 C22.4831183,14.1780076 28.0212261,5.50300807 40.4065599,-1.95399252e-14 C39.5369644,2.34841175 39.2481665,6.45178198 40.9167643,8.96528777 C41.9384218,10.5042697 42.9007111,9.0492195 43.8036322,4.60013706 C44.291457,6.82099626 45.1681875,8.64962232 46.4338237,10.0860152 C50.6229956,14.1076277 52.2669147,19.4206221 51.3655809,26.0249985" id="Path-39" fill="#FF7800"></path>
                    <path d="M37.5364684,37.4867853 C45.2123288,37.4867853 51.4348432,31.2642709 51.4348432,23.5884105 C51.4348432,19.9757004 48.022157,15.4641463 44.4677339,13.0124992 C43.8691897,12.5996561 43.2163447,16.8135649 43.1124747,17.8416897 C42.5318921,23.5884105 35.7555563,7.15541113 33.8957123,9.49567479 C31.6396617,12.33449 23.6380936,18.403707 23.6380936,23.5884105 C23.6380936,31.2642709 29.860608,37.4867853 37.5364684,37.4867853 Z" id="Oval" fill="#FFCF3A"></path>
                    <path d="M37.5364684,37.4867853 C41.6711316,37.4867853 45.0229385,34.1349785 45.0229385,30.0003152 C45.0229385,25.865652 37.443177,21.5184314 37.5364684,17.7546665 C37.6297598,13.9909017 30.0499983,25.865652 30.0499983,30.0003152 C30.0499983,34.1349785 33.4018051,37.4867853 37.5364684,37.4867853 Z" id="Oval" fill="#FFDF66"></path>
                    <path d="M59.0460051,37.8984429 C61.8474004,37.8984429 64.1183799,35.065209 64.1183799,31.5702378 C64.1183799,28.0752667 58.9827966,24.4006239 59.0460051,21.2191678 C59.1092137,18.0377117 53.9736304,28.0752667 53.9736304,31.5702378 C53.9736304,35.065209 56.2446099,37.8984429 59.0460051,37.8984429 Z" id="Oval-Copy" fill="#FF7800" transform="translate(59.046005, 29.251598) scale(-1, 1) rotate(-19.000000) translate(-59.046005, -29.251598) "></path>
                    <path d="M12.6267192,37.3980239 C16.6158276,37.3980239 19.8496389,33.3635782 19.8496389,28.3868371 C19.8496389,23.410096 12.536712,18.1775076 12.6267192,13.6472032 C12.7167264,9.11689878 5.40379953,23.410096 5.40379953,28.3868371 C5.40379953,33.3635782 8.63761082,37.3980239 12.6267192,37.3980239 Z" id="Oval-Copy-3" fill="#FF7800" transform="translate(12.626719, 25.085159) rotate(-19.000000) translate(-12.626719, -25.085159) "></path>
                    <path d="M37.4610442,35.2851477 C39.8248983,35.2851477 41.7411806,33.3688654 41.7411806,31.0050114 C41.7411806,28.6411573 37.407708,26.1557808 37.4610442,24.0039754 C37.5143804,21.85217 33.1809079,28.6411573 33.1809079,31.0050114 C33.1809079,33.3688654 35.0971902,35.2851477 37.4610442,35.2851477 Z" id="Oval" fill="#FFFFFF"></path>
                    <path d="M57.8714322,36.6857605 C59.3308973,36.6857605 60.5140276,35.1686656 60.5140276,33.2972342 C60.5140276,31.4258028 57.8385019,29.4581637 57.8714322,27.7546084 C57.9043624,26.051053 55.2288368,31.4258028 55.2288368,33.2972342 C55.2288368,35.1686656 56.411967,36.6857605 57.8714322,36.6857605 Z" id="Oval" fill="#FFCF3A" transform="translate(57.871432, 32.055686) scale(-1, 1) rotate(-23.000000) translate(-57.871432, -32.055686) "></path>
                    <path d="M14.356975,35.4990735 C16.720829,35.4990735 18.6371113,33.0418782 18.6371113,30.0107742 C18.6371113,26.9796702 14.3036388,23.7927413 14.356975,21.0335413 C14.4103112,18.2743414 10.0768386,26.9796702 10.0768386,30.0107742 C10.0768386,33.0418782 11.9931209,35.4990735 14.356975,35.4990735 Z" id="Oval" fill="#FFCF3A" transform="translate(14.356975, 27.999874) rotate(-23.000000) translate(-14.356975, -27.999874) "></path>
                </g>
            </g>
        </g>
    </g>
</svg>